Exact Audio Copy V0.99 prebeta 1 from 25. May 2007

EAC 抓取日志文件从21. 十月 2010, 1:06

群星 / 20世纪中华歌坛名人百集珍藏版-少数民族歌坛名人

使用驱动器  ：BENQ    DVD-ROM 16X   Adapter: 0  ID: 1

读取模式     : 保护
使用精确流   : 是
废除音频缓冲 : 是
使用 C2 指针 : 否

读取偏移校正                   : 738
读取 Lead-In 和 Lead-Out       : 否
用静音填充抓取中丢失偏移的采样 : 是
去除首尾静音块                 : 否
已用接口                       : 已安装外部 ASPI 接口

所用输出格式 : 内部 WAV 函数
样本格式     : 44.100 Hz;16 Bit;立体声


被抓轨 CD 的 TOC

     音轨 |   开始   |   长度   | 起始扇区 | 结尾扇区 
    --------------------------------------------------
       1  |  0:00.00 |  3:04.37 |       0  |   13836  
       2  |  3:04.37 |  2:55.20 |   13837  |   26981  
       3  |  5:59.57 |  2:38.10 |   26982  |   38841  
       4  |  8:37.67 |  3:41.08 |   38842  |   55424  
       5  | 12:19.00 |  2:23.10 |   55425  |   66159  
       6  | 14:42.10 |  3:39.65 |   66160  |   82649  
       7  | 18:22.00 |  1:15.37 |   82650  |   88311  
       8  | 19:37.37 |  2:09.63 |   88312  |   98049  
       9  | 21:47.25 |  2:19.70 |   98050  |  108544  
      10  | 24:07.20 |  2:05.07 |  108545  |  117926  
      11  | 26:12.27 |  2:21.00 |  117927  |  128501  
      12  | 28:33.27 |  3:55.53 |  128502  |  146179  
      13  | 32:29.05 |  2:49.07 |  146180  |  158861  
      14  | 35:18.12 |  1:52.33 |  158862  |  167294  
      15  | 37:10.45 |  1:48.70 |  167295  |  175464  
      16  | 38:59.40 |  1:41.62 |  175465  |  183101  
      17  | 40:41.27 |  1:53.30 |  183102  |  191606  
      18  | 42:34.57 |  1:12.25 |  191607  |  197031  
      19  | 43:47.07 |  2:54.68 |  197032  |  210149  
      20  | 46:42.00 |  4:14.20 |  210150  |  229219  


范围状态及错误

已选择范围

     文件名 E:\文件夹\20世纪中华歌坛名人百集珍藏版-少数民族歌坛名人[lwg188原创]\群星 - 20世纪中华歌坛名人百集珍藏版-少数民族歌坛名人.wav

     峰值电平 90.6 %
     范围质量 100.0 %
     复制 CRC 44E0F221
     复制成功

没有错误发生

状态报告结尾
